{
    "asset" : {
        "generator" : "Khronos glTF Blender I/O v3.3.32",
        "version" : "2.0"
    },
    "scene" : 0,
    "scenes" : [
        {
            "name" : "Scene",
            "nodes" : [
                0
            ]
        }
    ],
    "nodes" : [
        {
            "mesh" : 0,
            "name" : "Text",
            "rotation" : [
                0.7071068286895752,
                0,
                0,
                0.7071068286895752
            ],
            "translation" : [
                -0.0783882737159729,
                0,
                0.25374335050582886
            ]
        }
    ],
    "materials" : [
        {
            "doubleSided" : true,
            "name" : "Material",
            "pbrMetallicRoughness" : {
                "baseColorFactor" : [
                    0.38132578134536743,
                    0.5209952592849731,
                    0.015996448695659637,
                    1
                ],
                "metallicFactor" : 0,
                "roughnessFactor" : 0.5
            }
        }
    ],
    "meshes" : [
        {
            "name" : "Text",
            "primitives" : [
                {
                    "attributes" : {
                        "POSITION" : 0,
                        "NORMAL" : 1,
                        "TEXCOORD_0" : 2
                    },
                    "indices" : 3,
                    "material" : 0
                }
            ]
        }
    ],
    "accessors" : [
        {
            "bufferView" : 0,
            "componentType" : 5126,
            "count" : 1144,
            "max" : [
                0.30822983384132385,
                0.10000000894069672,
                0
            ],
            "min" : [
                -0.14757803082466125,
                -8.770410175884535e-09,
                -0.5621117949485779
            ],
            "type" : "VEC3"
        },
        {
            "bufferView" : 1,
            "componentType" : 5126,
            "count" : 1144,
            "type" : "VEC3"
        },
        {
            "bufferView" : 2,
            "componentType" : 5126,
            "count" : 1144,
            "type" : "VEC2"
        },
        {
            "bufferView" : 3,
            "componentType" : 5123,
            "count" : 1848,
            "type" : "SCALAR"
        }
    ],
    "bufferViews" : [
        {
            "buffer" : 0,
            "byteLength" : 13728,
            "byteOffset" : 0,
            "target" : 34962
        },
        {
            "buffer" : 0,
            "byteLength" : 13728,
            "byteOffset" : 13728,
            "target" : 34962
        },
        {
            "buffer" : 0,
            "byteLength" : 9152,
            "byteOffset" : 27456,
            "target" : 34962
        },
        {
            "buffer" : 0,
            "byteLength" : 3696,
            "byteOffset" : 36608,
            "target" : 34963
        }
    ],
    "buffers" : [
        {
            "byteLength" : 40304,
            "uri" : "data:application/octet-stream;base64,"
        }
    ]
}
